<svg width="30" height="31" viewBox="0 0 30 31" fill="none" xmlns="http://www.w3.org/2000/svg">
<mask id="mask0_271_38296" style="mask-type:alpha" maskUnits="userSpaceOnUse" x="0" y="0" width="30" height="31">
<rect y="0.972656" width="30" height="30" fill="#D9D9D9"/>
</mask>
<g mask="url(#mask0_271_38296)">
<path d="M15 26.5991C13.75 26.5991 12.5992 26.2916 11.5475 25.6766C10.495 25.0625 9.66667 24.2241 9.0625 23.1616H6.46875C6.19792 23.1616 5.97917 23.0733 5.8125 22.8966C5.64583 22.7191 5.5625 22.495 5.5625 22.2241C5.5625 21.9533 5.65083 21.7291 5.8275 21.5516C6.005 21.375 6.22917 21.2866 6.5 21.2866H8.34375C8.21875 20.7658 8.15125 20.245 8.14125 19.7241C8.13042 19.2033 8.125 18.6825 8.125 18.1616H6.46875C6.19792 18.1616 5.97917 18.0729 5.8125 17.8954C5.64583 17.7187 5.5625 17.495 5.5625 17.2241C5.5625 16.9533 5.65083 16.7291 5.8275 16.5516C6.005 16.375 6.22917 16.2866 6.5 16.2866H8.125V14.7091C8.125 14.1775 8.19792 13.6616 8.34375 13.1616H6.46875C6.19792 13.1616 5.97917 13.0729 5.8125 12.8954C5.64583 12.7187 5.5625 12.495 5.5625 12.2241C5.5625 11.9533 5.65083 11.7291 5.8275 11.5516C6.005 11.375 6.22917 11.2866 6.5 11.2866H9.0625C9.35417 10.7658 9.70333 10.297 10.11 9.88038C10.5158 9.46371 10.9896 9.10955 11.5313 8.81788L10 7.28663C9.83333 7.11996 9.755 6.91163 9.765 6.66163C9.77583 6.41163 9.86458 6.19288 10.0312 6.00538C10.2188 5.83871 10.4425 5.75538 10.7025 5.75538C10.9633 5.75538 11.1771 5.83871 11.3438 6.00538L13.3438 8.03663C13.8854 7.86996 14.4325 7.78663 14.985 7.78663C15.5367 7.78663 16.0729 7.86996 16.5938 8.03663L18.6875 5.97413C18.875 5.80746 19.0938 5.72913 19.3438 5.73913C19.5938 5.74996 19.8021 5.83871 19.9688 6.00538C20.1563 6.19288 20.25 6.41663 20.25 6.67663C20.25 6.93746 20.1563 7.15121 19.9688 7.31788L18.4688 8.81788C18.9896 9.10955 19.4583 9.46371 19.875 9.88038C20.2917 10.297 20.6458 10.7658 20.9375 11.2866H23.5313C23.8021 11.2866 24.0208 11.375 24.1875 11.5516C24.3542 11.7291 24.4375 11.9533 24.4375 12.2241C24.4375 12.495 24.3487 12.7187 24.1712 12.8954C23.9946 13.0729 23.7708 13.1616 23.5 13.1616H21.6563C21.8021 13.6616 21.875 14.1775 21.875 14.7091V16.2866H23.5313C23.8021 16.2866 24.0208 16.375 24.1875 16.5516C24.3542 16.7291 24.4375 16.9533 24.4375 17.2241C24.4375 17.495 24.3487 17.7187 24.1712 17.8954C23.9946 18.0729 23.7708 18.1616 23.5 18.1616H21.875C21.875 18.6825 21.87 19.2033 21.86 19.7241C21.8492 20.245 21.7813 20.7658 21.6563 21.2866H23.5313C23.8021 21.2866 24.0208 21.375 24.1875 21.5516C24.3542 21.7291 24.4375 21.9533 24.4375 22.2241C24.4375 22.495 24.3487 22.7191 24.1712 22.8966C23.9946 23.0733 23.7708 23.1616 23.5 23.1616H20.9375C20.3333 24.2241 19.5054 25.0625 18.4537 25.6766C17.4012 26.2916 16.25 26.5991 15 26.5991ZM15 24.7241C16.375 24.7241 17.5521 24.2345 18.5312 23.2554C19.5104 22.2762 20 21.0991 20 19.7241V14.7241C20 13.3491 19.5104 12.172 18.5312 11.1929C17.5521 10.2137 16.375 9.72413 15 9.72413C13.625 9.72413 12.4479 10.2137 11.4688 11.1929C10.4896 12.172 10 13.3491 10 14.7241V19.7241C10 21.0991 10.4896 22.2762 11.4688 23.2554C12.4479 24.2345 13.625 24.7241 15 24.7241ZM13.625 20.6616H16.4062C16.6562 20.6616 16.87 20.5729 17.0475 20.3954C17.2242 20.2187 17.3125 19.995 17.3125 19.7241C17.3125 19.4533 17.2242 19.2291 17.0475 19.0516C16.87 18.875 16.6458 18.7866 16.375 18.7866H13.5938C13.3438 18.7866 13.1304 18.875 12.9538 19.0516C12.7763 19.2291 12.6875 19.4533 12.6875 19.7241C12.6875 19.995 12.7763 20.2187 12.9538 20.3954C13.1304 20.5729 13.3542 20.6616 13.625 20.6616ZM13.625 15.6616H16.4062C16.6562 15.6616 16.87 15.5729 17.0475 15.3954C17.2242 15.2187 17.3125 14.995 17.3125 14.7241C17.3125 14.4533 17.2242 14.2291 17.0475 14.0516C16.87 13.875 16.6458 13.7866 16.375 13.7866H13.5938C13.3438 13.7866 13.1304 13.875 12.9538 14.0516C12.7763 14.2291 12.6875 14.4533 12.6875 14.7241C12.6875 14.995 12.7763 15.2187 12.9538 15.3954C13.1304 15.5729 13.3542 15.6616 13.625 15.6616Z" fill="white"/>
</g>
</svg>
