<svg width="25" height="21" viewBox="0 0 25 21" fill="none" xmlns="http://www.w3.org/2000/svg">
<path d="M12.4997 20.3965C12.3122 20.3965 12.1405 20.3548 11.9847 20.2715C11.828 20.1882 11.6768 20.0736 11.531 19.9277L1.28096 7.61523C1.11429 7.4069 1.01554 7.18815 0.984706 6.95898C0.95304 6.72982 0.98929 6.50065 1.09346 6.27148L3.78096 0.896485C3.90596 0.688151 4.06221 0.521484 4.24971 0.396484C4.43721 0.271484 4.65596 0.208984 4.90596 0.208984H20.0935C20.3435 0.208984 20.5622 0.271484 20.7497 0.396484C20.9372 0.521484 21.0935 0.688151 21.2185 0.896485L23.906 6.27148C24.0101 6.50065 24.0464 6.72982 24.0147 6.95898C23.9839 7.18815 23.8851 7.4069 23.7185 7.61523L13.4685 19.9277C13.3226 20.0736 13.1718 20.1882 13.016 20.2715C12.8593 20.3548 12.6872 20.3965 12.4997 20.3965ZM8.53096 6.45898H16.4685L13.9685 1.45898H11.031L8.53096 6.45898ZM11.8747 18.3965V7.70898H2.99971L11.8747 18.3965ZM13.1247 18.3965L21.9997 7.70898H13.1247V18.3965ZM17.8747 6.45898H22.5622L20.0935 1.45898H15.3747L17.8747 6.45898ZM2.43721 6.45898H7.12471L9.62471 1.45898H4.90596L2.43721 6.45898Z" fill="white"/>
</svg>
