<svg width="24" height="25" viewBox="0 0 24 25" fill="none" xmlns="http://www.w3.org/2000/svg">
<mask id="mask0_413_18016" style="mask-type:alpha" maskUnits="userSpaceOnUse" x="0" y="0" width="24" height="25">
<rect y="0.5" width="24" height="24" fill="#D9D9D9"/>
</mask>
<g mask="url(#mask0_413_18016)">
<path d="M6 20.5C5.45 20.5 4.97933 20.3043 4.588 19.913C4.196 19.521 4 19.05 4 18.5V15.5H6V18.5H18V15.5H20V18.5C20 19.05 19.8043 19.521 19.413 19.913C19.021 20.3043 18.55 20.5 18 20.5H6ZM12 16.5L7 11.5L8.4 10.05L11 12.65V4.5H13V12.65L15.6 10.05L17 11.5L12 16.5Z" fill="#2B2B2B"/>
</g>
</svg>
