<svg width="31" height="31" viewBox="0 0 31 31" fill="none" xmlns="http://www.w3.org/2000/svg">
<mask id="mask0_297_39496" style="mask-type:alpha" maskUnits="userSpaceOnUse" x="0" y="0" width="31" height="31">
<rect x="0.5" y="0.833984" width="30" height="30" fill="#D9D9D9"/>
</mask>
<g mask="url(#mask0_297_39496)">
<path d="M8.3125 26.7715C8.04167 26.7715 7.81792 26.6832 7.64125 26.5065C7.46375 26.329 7.375 26.1048 7.375 25.834V7.58398C7.375 7.27148 7.48458 7.00565 7.70375 6.78648C7.92208 6.56815 8.1875 6.45898 8.5 6.45898H16.5625C16.8333 6.45898 17.0729 6.54232 17.2813 6.70898C17.4896 6.87565 17.6146 7.0944 17.6563 7.36523L18 8.95898H23.75C24.0625 8.95898 24.3283 9.06815 24.5475 9.28648C24.7658 9.50565 24.875 9.77148 24.875 10.084V19.084C24.875 19.3965 24.7658 19.6623 24.5475 19.8815C24.3283 20.0998 24.0625 20.209 23.75 20.209H18.1875C17.9167 20.209 17.6771 20.1257 17.4687 19.959C17.2604 19.7923 17.1354 19.5736 17.0937 19.3027L16.75 17.709H9.25V25.834C9.25 26.1048 9.16125 26.329 8.98375 26.5065C8.80708 26.6832 8.58333 26.7715 8.3125 26.7715ZM18.8125 18.334H23V10.834H16.4375L15.9375 8.33398H9.25V15.834H18.3125L18.8125 18.334Z" fill="white"/>
</g>
</svg>
