<svg width="27" height="27" viewBox="0 0 27 27" fill="none" xmlns="http://www.w3.org/2000/svg">
<path d="M24.4062 10.4277L23.125 9.83398L24.4062 9.24023L25 7.95898L25.5938 9.24023L26.875 9.83398L25.5938 10.4277L25 11.709L24.4062 10.4277ZM20.3438 4.49023L18.4062 3.58398L20.3438 2.67773L21.25 0.740234L22.1562 2.67773L24.0938 3.58398L22.1562 4.49023L21.25 6.42773L20.3438 4.49023ZM8.75 26.2715C8.16667 26.2715 7.66667 26.079 7.25 25.694C6.83333 25.3081 6.58333 24.834 6.5 24.2715H11C10.9167 24.834 10.6667 25.3081 10.25 25.694C9.83333 26.079 9.33333 26.2715 8.75 26.2715ZM5 22.0527C4.8125 22.0527 4.66167 21.9902 4.5475 21.8652C4.4325 21.7402 4.375 21.5944 4.375 21.4277C4.375 21.2402 4.4325 21.0894 4.5475 20.9752C4.66167 20.8602 4.8125 20.8027 5 20.8027H12.5C12.6875 20.8027 12.8387 20.8602 12.9537 20.9752C13.0679 21.0894 13.125 21.2402 13.125 21.4277C13.125 21.5944 13.0679 21.7402 12.9537 21.8652C12.8387 21.9902 12.6875 22.0527 12.5 22.0527H5ZM4.4375 18.584C3.27083 17.8132 2.34375 16.834 1.65625 15.6465C0.96875 14.459 0.625 13.1465 0.625 11.709C0.625 9.43815 1.41167 7.51607 2.985 5.94273C4.5575 4.37023 6.47917 3.58398 8.75 3.58398C11.0208 3.58398 12.9429 4.37023 14.5162 5.94273C16.0887 7.51607 16.875 9.43815 16.875 11.709C16.875 13.1465 16.5312 14.459 15.8438 15.6465C15.1562 16.834 14.2292 17.8132 13.0625 18.584H4.4375ZM4.8125 17.334H12.6875C13.625 16.6673 14.3488 15.8444 14.8588 14.8652C15.3696 13.8861 15.625 12.834 15.625 11.709C15.625 9.79232 14.9583 8.16732 13.625 6.83398C12.2917 5.50065 10.6667 4.83398 8.75 4.83398C6.83333 4.83398 5.20833 5.50065 3.875 6.83398C2.54167 8.16732 1.875 9.79232 1.875 11.709C1.875 12.834 2.13042 13.8861 2.64125 14.8652C3.15125 15.8444 3.875 16.6673 4.8125 17.334Z" fill="white"/>
</svg>
