<svg width="40" height="40" viewBox="0 0 40 40" fill="none" xmlns="http://www.w3.org/2000/svg">
<rect width="40" height="40" rx="20" fill="black"/>
<path d="M18.7936 10.002C23.0161 10.002 26.1427 10.9024 28.1736 12.7032C30.2245 14.4841 31.25 17.0453 31.25 20.3868C31.25 22.5679 30.7473 24.4788 29.7419 26.1195C28.7366 27.7403 27.2788 29.0009 25.3686 29.9013C23.4785 30.8017 21.1964 31.252 18.5221 31.252C18.0395 31.252 17.3358 31.242 16.4109 31.2219C15.506 31.1819 14.7017 31.1619 13.998 31.1619C12.9926 31.1619 12.0074 31.1719 11.0422 31.1919C10.0972 31.1919 9.33311 31.2119 8.75 31.252V30.6517C9.37332 30.6117 9.83579 30.5316 10.1374 30.4116C10.439 30.2915 10.6401 30.0514 10.7406 29.6912C10.8412 29.3311 10.8914 28.7908 10.8914 28.0705V13.1834C10.8914 12.4431 10.8412 11.9028 10.7406 11.5627C10.6401 11.2025 10.429 10.9624 10.1072 10.8423C9.80563 10.7023 9.35322 10.6222 8.75 10.6022V10.002C9.33311 10.022 10.0972 10.052 11.0422 10.092C12.0074 10.112 12.9725 10.112 13.9377 10.092C14.6816 10.072 15.5161 10.052 16.441 10.032C17.3861 10.012 18.1702 10.002 18.7936 10.002ZM19.246 10.5422C18.321 10.5422 17.7178 10.7123 17.4363 11.0524C17.1548 11.3926 17.0141 12.0829 17.0141 13.1234V28.1305C17.0141 29.171 17.1548 29.8613 17.4363 30.2015C17.7379 30.5416 18.3512 30.7117 19.2761 30.7117C20.6434 30.7117 21.7393 30.3215 22.5637 29.5412C23.3881 28.7408 23.9812 27.5802 24.3432 26.0595C24.7252 24.5388 24.9162 22.6879 24.9162 20.5069C24.9162 17.1453 24.4638 14.6441 23.559 13.0034C22.6541 11.3626 21.2165 10.5422 19.246 10.5422Z" fill="white"/>
</svg>
