<svg width="33" height="34" viewBox="0 0 33 34" fill="none" xmlns="http://www.w3.org/2000/svg">
<rect y="0.597656" width="32.8032" height="32.8048" rx="16.4016" fill="white"/>
<path d="M15.4123 8.78906C18.8751 8.78906 21.4392 9.52747 23.1046 11.0043C24.7866 12.4647 25.6275 14.565 25.6275 17.3053C25.6275 19.0939 25.2153 20.661 24.3908 22.0065C23.5663 23.3356 22.3709 24.3694 20.8044 25.1078C19.2543 25.8462 17.3828 26.2154 15.1897 26.2154C14.7939 26.2154 14.2168 26.2072 13.4583 26.1908C12.7163 26.158 12.0567 26.1416 11.4795 26.1416C10.6551 26.1416 9.84708 26.1498 9.05558 26.1662C8.28058 26.1662 7.65398 26.1826 7.17578 26.2154V25.7231C7.68696 25.6903 8.06621 25.6247 8.31356 25.5262C8.5609 25.4278 8.72579 25.2309 8.80824 24.9355C8.89069 24.6401 8.93191 24.1971 8.93191 23.6064V11.3981C8.93191 10.791 8.89069 10.3479 8.80824 10.069C8.72579 9.7736 8.55265 9.57669 8.28882 9.47824C8.04148 9.36338 7.67047 9.29774 7.17578 9.28133V8.78906C7.65398 8.80547 8.28058 8.83008 9.05558 8.8629C9.84708 8.87931 10.6386 8.87931 11.4301 8.8629C12.0402 8.84649 12.7245 8.83008 13.483 8.81368C14.258 8.79727 14.9011 8.78906 15.4123 8.78906ZM15.7833 9.2321C15.0248 9.2321 14.5301 9.37158 14.2992 9.65053C14.0684 9.92949 13.953 10.4956 13.953 11.3489V23.6556C13.953 24.5089 14.0684 25.075 14.2992 25.3539C14.5466 25.6329 15.0495 25.7724 15.808 25.7724C16.9293 25.7724 17.828 25.4524 18.5041 24.8124C19.1801 24.1561 19.6666 23.2044 19.9634 21.9573C20.2767 20.7102 20.4333 19.1924 20.4333 17.4038C20.4333 14.6471 20.0623 12.5959 19.3203 11.2504C18.5783 9.90487 17.3993 9.2321 15.7833 9.2321Z" fill="#2B2B2B"/>
</svg>
