<svg width="25" height="25" viewBox="0 0 25 25" fill="none" xmlns="http://www.w3.org/2000/svg">
<mask id="mask0_376_18132" style="mask-type:alpha" maskUnits="userSpaceOnUse" x="0" y="0" width="25" height="25">
<rect x="0.5" y="0.333984" width="24" height="24" fill="#D9D9D9"/>
</mask>
<g mask="url(#mask0_376_18132)">
<path d="M4.8 19.834C4.3 19.834 3.875 19.659 3.525 19.309C3.175 18.959 3 18.534 3 18.034V6.63398C3 6.13398 3.175 5.70898 3.525 5.35898C3.875 5.00898 4.3 4.83398 4.8 4.83398H20.2C20.7 4.83398 21.125 5.00898 21.475 5.35898C21.825 5.70898 22 6.13398 22 6.63398V18.034C22 18.534 21.825 18.959 21.475 19.309C21.125 19.659 20.7 19.834 20.2 19.834H4.8ZM12.5 12.734C12.5833 12.734 12.6667 12.7213 12.75 12.696C12.8333 12.6713 12.9083 12.634 12.975 12.584L20.15 8.00898C20.25 7.94232 20.325 7.85065 20.375 7.73398C20.425 7.61732 20.4417 7.50065 20.425 7.38398C20.4083 7.15065 20.296 6.97565 20.088 6.85898C19.8793 6.74232 19.6667 6.75065 19.45 6.88398L12.5 11.334L5.55 6.88398C5.33333 6.75065 5.121 6.74232 4.913 6.85898C4.70433 6.97565 4.59167 7.14232 4.575 7.35898C4.55833 7.49232 4.575 7.61732 4.625 7.73398C4.675 7.85065 4.75 7.94232 4.85 8.00898L12.025 12.584C12.0917 12.634 12.1667 12.6713 12.25 12.696C12.3333 12.7213 12.4167 12.734 12.5 12.734Z" fill="white"/>
</g>
</svg>
