<svg width="30" height="31" viewBox="0 0 30 31" fill="none" xmlns="http://www.w3.org/2000/svg">
<mask id="mask0_271_38306" style="mask-type:alpha" maskUnits="userSpaceOnUse" x="0" y="0" width="30" height="31">
<rect y="0.972656" width="30" height="30" fill="#D9D9D9"/>
</mask>
<g mask="url(#mask0_271_38306)">
<path d="M10.7812 26.5977C8.98958 26.5977 7.47417 25.9777 6.235 24.7377C4.995 23.4985 4.375 21.9831 4.375 20.1914C4.375 19.3372 4.53667 18.5193 4.86 17.7377C5.1825 16.9568 5.64583 16.2643 6.25 15.6602L14.6875 7.22266C15.2917 6.61849 15.9846 6.15474 16.7663 5.83141C17.5471 5.50891 18.3646 5.34766 19.2188 5.34766C21.0104 5.34766 22.5263 5.96724 23.7663 7.20641C25.0054 8.44641 25.625 9.96224 25.625 11.7539C25.625 12.6081 25.4638 13.4256 25.1413 14.2064C24.8179 14.9881 24.3542 15.681 23.75 16.2852L15.3125 24.7227C14.7083 25.3268 14.0158 25.7906 13.235 26.1139C12.4533 26.4364 11.6354 26.5977 10.7812 26.5977ZM18.875 18.5039L22.4375 14.9727C22.8542 14.556 23.1771 14.0664 23.4062 13.5039C23.6354 12.9414 23.75 12.3581 23.75 11.7539C23.75 10.5039 23.3075 9.43599 22.4225 8.55016C21.5367 7.66516 20.4688 7.22266 19.2188 7.22266C18.6146 7.22266 18.0312 7.33724 17.4688 7.56641C16.9063 7.79557 16.4167 8.11849 16 8.53516L12.4688 12.0977L18.875 18.5039ZM10.7812 24.7227C11.3854 24.7227 11.9687 24.6081 12.5312 24.3789C13.0937 24.1497 13.5833 23.8268 14 23.4102L17.5312 19.8477L11.125 13.4414L7.5625 16.9727C7.14583 17.3893 6.82292 17.8789 6.59375 18.4414C6.36458 19.0039 6.25 19.5872 6.25 20.1914C6.25 21.4414 6.6925 22.5093 7.5775 23.3952C8.46333 24.2802 9.53125 24.7227 10.7812 24.7227Z" fill="white"/>
</g>
</svg>
