<svg width="30" height="31" viewBox="0 0 30 31" fill="none" xmlns="http://www.w3.org/2000/svg">
<mask id="mask0_271_38322" style="mask-type:alpha" maskUnits="userSpaceOnUse" x="0" y="0" width="30" height="31">
<rect y="0.972656" width="30" height="30" fill="#D9D9D9"/>
</mask>
<g mask="url(#mask0_271_38322)">
<path d="M19.25 14.4727C19.7292 14.4727 20.1196 14.3218 20.4212 14.0202C20.7237 13.7177 20.875 13.3268 20.875 12.8477C20.875 12.3685 20.7237 11.9777 20.4212 11.6752C20.1196 11.3735 19.7292 11.2227 19.25 11.2227C18.7917 11.2227 18.4062 11.3735 18.0938 11.6752C17.7812 11.9777 17.625 12.3685 17.625 12.8477C17.625 13.3268 17.7763 13.7177 18.0788 14.0202C18.3804 14.3218 18.7708 14.4727 19.25 14.4727ZM10.75 14.4727C11.2083 14.4727 11.5938 14.3218 11.9062 14.0202C12.2188 13.7177 12.375 13.3268 12.375 12.8477C12.375 12.3685 12.2242 11.9777 11.9225 11.6752C11.62 11.3735 11.2292 11.2227 10.75 11.2227C10.2708 11.2227 9.88042 11.3735 9.57875 11.6752C9.27625 11.9777 9.125 12.3685 9.125 12.8477C9.125 13.3268 9.27625 13.7177 9.57875 14.0202C9.88042 14.3218 10.2708 14.4727 10.75 14.4727ZM15 27.8477C13.3542 27.8477 11.8075 27.5352 10.36 26.9102C8.91167 26.2852 7.65625 25.4414 6.59375 24.3789C5.53125 23.3164 4.6875 22.061 4.0625 20.6127C3.4375 19.1652 3.125 17.6185 3.125 15.9727C3.125 14.3268 3.4375 12.7797 4.0625 11.3314C4.6875 9.88391 5.53125 8.62891 6.59375 7.56641C7.65625 6.50391 8.91167 5.66016 10.36 5.03516C11.8075 4.41016 13.3542 4.09766 15 4.09766C16.6458 4.09766 18.1929 4.41016 19.6413 5.03516C21.0888 5.66016 22.3438 6.50391 23.4062 7.56641C24.4688 8.62891 25.3125 9.88391 25.9375 11.3314C26.5625 12.7797 26.875 14.3268 26.875 15.9727C26.875 17.6185 26.5625 19.1652 25.9375 20.6127C25.3125 22.061 24.4688 23.3164 23.4062 24.3789C22.3438 25.4414 21.0888 26.2852 19.6413 26.9102C18.1929 27.5352 16.6458 27.8477 15 27.8477ZM15 25.9727C17.7708 25.9727 20.1304 24.9989 22.0788 23.0514C24.0263 21.1031 25 18.7435 25 15.9727C25 13.2018 24.0263 10.8422 22.0788 8.89391C20.1304 6.94641 17.7708 5.97266 15 5.97266C12.2292 5.97266 9.87 6.94641 7.9225 8.89391C5.97417 10.8422 5 13.2018 5 15.9727C5 18.7435 5.97417 21.1031 7.9225 23.0514C9.87 24.9989 12.2292 25.9727 15 25.9727ZM10.2813 21.8477C10.4063 21.8477 10.5208 21.8164 10.625 21.7539C10.7292 21.6914 10.8229 21.6081 10.9063 21.5039C11.3646 20.8581 11.9429 20.3372 12.6412 19.9414C13.3387 19.5456 14.125 19.3477 15 19.3477C15.875 19.3477 16.6617 19.5456 17.36 19.9414C18.0575 20.3372 18.6354 20.8581 19.0938 21.5039C19.1562 21.6081 19.245 21.6914 19.36 21.7539C19.4742 21.8164 19.5833 21.8477 19.6875 21.8477C20 21.8477 20.2292 21.7122 20.375 21.4414C20.5208 21.1706 20.4896 20.8893 20.2812 20.5977C19.7188 19.7435 18.9688 19.0714 18.0312 18.5814C17.0938 18.0922 16.0833 17.8477 15 17.8477C13.9167 17.8477 12.9062 18.0922 11.9688 18.5814C11.0312 19.0714 10.2708 19.7643 9.6875 20.6602C9.5 20.931 9.47917 21.1964 9.625 21.4564C9.77083 21.7172 9.98958 21.8477 10.2813 21.8477Z" fill="white"/>
</g>
</svg>
