<svg width="70" height="60" viewBox="0 0 70 60" fill="none" xmlns="http://www.w3.org/2000/svg">
<path opacity="0.4" d="M49.584 46.0762H37.9173L24.9381 53.4762C23.0131 54.5762 20.4173 53.4012 20.4173 51.4012V46.0762C11.6673 46.0762 5.83398 41.0762 5.83398 33.5762V18.5762C5.83398 11.0762 11.6673 6.07617 20.4173 6.07617H49.584C58.334 6.07617 64.1673 11.0762 64.1673 18.5762V33.5762C64.1673 41.0762 58.334 46.0762 49.584 46.0762Z" fill="#FFAB09"/>
<path d="M34.9998 30.2754C33.804 30.2754 32.8123 29.4254 32.8123 28.4004V27.8755C32.8123 24.9755 35.2914 23.5505 36.2247 23.0005C37.3039 22.3755 37.6539 21.9505 37.6539 21.3005C37.6539 20.0505 36.4581 19.0254 34.9998 19.0254C33.5415 19.0254 32.3457 20.0505 32.3457 21.3005C32.3457 22.3255 31.354 23.1755 30.1582 23.1755C28.9624 23.1755 27.9707 22.3255 27.9707 21.3005C27.9707 17.9755 31.1206 15.2754 34.9998 15.2754C38.879 15.2754 42.0289 17.9755 42.0289 21.3005C42.0289 24.1505 39.579 25.5754 38.6748 26.1004C37.5373 26.7504 37.1873 27.1755 37.1873 27.8755V28.4004C37.1873 29.4504 36.1956 30.2754 34.9998 30.2754Z" fill="#292D32"/>
<path d="M35 36.5C33.775 36.5 32.8125 35.65 32.8125 34.625C32.8125 33.6 33.8042 32.75 35 32.75C36.1958 32.75 37.1875 33.6 37.1875 34.625C37.1875 35.65 36.225 36.5 35 36.5Z" fill="#292D32"/>
</svg>
